<svg xmlns="http://www.w3.org/2000/svg" viewBox="0 0 64.81 58.03"><defs><style>.cls-1{fill:#101049;}</style></defs><g id="Livello_2" data-name="Livello 2"><g id="Livello_1-2" data-name="Livello 1"><path class="cls-1" d="M20.2,41.36c-.68-.82-1-2.36-1-4.64V1.21a61.7,61.7,0,0,1-6.54.85Q9.1,2.34,5,2.35c-1.62,0-3.3-.09-5-.25V3.81A3.72,3.72,0,0,1,3.58,5.56a11.47,11.47,0,0,1,1,5.4V36.72c0,2.28-.33,3.82-1,4.64A4.41,4.41,0,0,1,0,42.58v1.7l5.29-.2C7.61,44,9.92,44,12.19,44s4.5,0,6.67.12l4.87.2v-1.7A4.39,4.39,0,0,1,20.2,41.36Z"/><path class="cls-1" d="M40.19,55q-1.87-1.33-1.87-5.32V.33a62.25,62.25,0,0,1-6.55.85c-2.35.19-4.89.29-7.59.29-1.63,0-3.31-.08-5-.25V2.93a3.72,3.72,0,0,1,3.57,1.75,11.45,11.45,0,0,1,1,5.4V50.47c0,2.28-.34,3.82-1,4.64a4.39,4.39,0,0,1-3.53,1.22V58l4.79-.2c2.12-.08,4.25-.12,6.42-.12q4.56,0,8.62.12l6.34.2v-1.7A8.57,8.57,0,0,1,40.19,55ZM38.32,41.37a3,3,0,0,0,.73.33,7.35,7.35,0,0,0,2.11.32A6.11,6.11,0,0,0,46,39.83a14.44,14.44,0,0,0,2.72-6.59,58.76,58.76,0,0,0,.85-11,64.1,64.1,0,0,0-.73-11.13,12.86,12.86,0,0,0-2-5.41,3.51,3.51,0,0,0-2.76-1.5A5.88,5.88,0,0,0,40.1,5.86a5.43,5.43,0,0,0-1.78,4.22v-4a11.51,11.51,0,0,1,5-4.59A16.9,16.9,0,0,1,50.67,0,12.51,12.51,0,0,1,60.75,5q4.06,5,4.06,15.4,0,9.2-2.6,14.47a15.65,15.65,0,0,1-6.91,7.44,20.83,20.83,0,0,1-9.42,2.15,21.77,21.77,0,0,1-5.25-.61,8.45,8.45,0,0,1-2.31-.92"/></g></g></svg>